<svg xmlns="http://www.w3.org/2000/svg" viewBox="0 0 25.13 24.39"><defs><style>.cls-1{fill:none;stroke:#000;stroke-miterlimit:10;stroke-width:0.7px;}</style></defs><title>espers</title><g id="Layer_2" data-name="Layer 2"><g id="Layer_1-2" data-name="Layer 1"><path class="cls-1" d="M2.13,1.35c.49.37,1,.74,1.47,1.09a27.41,27.41,0,0,0,7.79,3.82A1.22,1.22,0,0,0,12,6.2c.59-.15,1.17-.34,1.76-.47A1.78,1.78,0,0,1,15,6,31.25,31.25,0,0,1,18.65,8.5c.78.59,1.57,1.16,2.37,1.72a.65.65,0,0,0,1-.1,3.83,3.83,0,0,0,1.06-2c.11-.52.15-1,.22-1.61.16.26.34.5.48.76A8.16,8.16,0,0,1,24.59,10a17.67,17.67,0,0,1,.16,3.63,2.82,2.82,0,0,1-1.08,2.14l-.59-1.54-1,1-.53-1.49-.82,1.15-.07,0A2.71,2.71,0,0,0,20,13.39l-1.16.76c-.13-.69-.63-.86-1.16-1a5.83,5.83,0,0,0-3,.3,4.52,4.52,0,0,0-.55.3c.39.36.71.72,1.09,1a1.7,1.7,0,0,0,2,.18l.23-.12.11,0,.2,1.46a3.69,3.69,0,0,0,1.44-.52L19,17.12a2.59,2.59,0,0,0,1.51-.58l.16,1.39a3.48,3.48,0,0,0,1.48-.37,3.46,3.46,0,0,1-.39,1.67,1.89,1.89,0,0,1-1.33,1A5.08,5.08,0,0,1,20,23.15c0-.15-.07-.25-.1-.34a9.54,9.54,0,0,0-1.46-3.09.89.89,0,0,0-.29-.26,17.49,17.49,0,0,1-5-4l-.06,0c-.73,1.6-2.24,2.35-3.58,3.35.21-.61.43-1.17.59-1.74a8.84,8.84,0,0,0,.3-1.6,4.61,4.61,0,0,0-.12-1.09,17.34,17.34,0,0,1-8.12,1.57l1.41-.65a18.07,18.07,0,0,0,3.2-1.76,11.48,11.48,0,0,0,1-.94,1.23,1.23,0,0,0,.19-.32,10.79,10.79,0,0,1-5.32.21,5.46,5.46,0,0,1-1-.29A9.22,9.22,0,0,0,6.6,10.22,9.82,9.82,0,0,1,1.57,7c.93.26,1.79.52,2.66.74A13.1,13.1,0,0,0,7,8.21,15.38,15.38,0,0,1,2.13,1.35Zm13,6.1c-.22.23-.43.44-.62.67-.45.55-.39.86.2,1.25a4.74,4.74,0,0,0,1.88.68c.46.08.93.1,1.39.15l0-.09A9.11,9.11,0,0,1,15.13,7.45Z"/><path class="cls-1" d="M17.71,24H13.93a.47.47,0,0,1-.29-.08A13.29,13.29,0,0,1,11,21.25a4.89,4.89,0,0,1-.8-1.77.25.25,0,0,1,.09-.21L12,18A13.29,13.29,0,0,0,17.71,24Z"/><path class="cls-1" d="M6.14,16.57A8.83,8.83,0,0,0,5.06,24H3.29a5.24,5.24,0,0,1,0-2.49,11.06,11.06,0,0,1,2.22-4.72A.71.71,0,0,1,6.14,16.57Z"/><path class="cls-1" d="M10.23,21.85a7.74,7.74,0,0,1-2.49.3,7.43,7.43,0,0,1-2-.44c-.16-.06-.22-.13-.2-.3,0-.45.07-.9.11-1.37.36.12.66.23,1,.32a4.8,4.8,0,0,0,2.63-.05c.2,0,.25,0,.33.17C9.75,20.94,10,21.38,10.23,21.85Z"/><path class="cls-1" d="M6,24l-.37-1.41,1,.25a8,8,0,0,0,3.81-.16l.07,0a.48.48,0,0,1,.64.19c.28.33.62.61.94.92l.26.24Z"/><path class="cls-1" d="M13.85,4.76a4.38,4.38,0,0,0-2.31.45C10.46,4,9.62,2.77,9.89,1.05A8.83,8.83,0,0,0,13.85,4.76Z"/><path class="cls-1" d="M8.79,17.93c-.24.54-.45,1-.67,1.53a.17.17,0,0,1-.12.1,4.39,4.39,0,0,1-2.12-.41l.66-1.57A5.07,5.07,0,0,0,8.79,17.93Z"/><path class="cls-1" d="M9.51,15.59c-.12.47-.22.87-.33,1.26A.28.28,0,0,1,9,17a3.48,3.48,0,0,1-2-.17c.15-.29.28-.53.64-.61.52-.12,1-.32,1.53-.49Z"/></g></g></svg>