<svg xmlns="http://www.w3.org/2000/svg" viewBox="0 0 23.42 22.99"><title>gear</title><g id="Layer_2" data-name="Layer 2"><g id="Layer_1-2" data-name="Layer 1"><path d="M0,2.64l3.06-.76L9.34.31a.81.81,0,0,1,.31,0l5,1.25s0,0,.11.05L14.41,3c-.55-.13-1.08-.26-1.6-.4L9.67,1.83a.58.58,0,0,0-.32,0l-7.89,2v.26c0,3,0,6,0,9a5,5,0,0,0,1,3A13.5,13.5,0,0,0,5.48,19a25.06,25.06,0,0,0,3.85,2.32.36.36,0,0,0,.36,0,26.27,26.27,0,0,0,4.9-3.16l.14-.11,1,1.12c-.44.33-.86.67-1.29,1a27,27,0,0,1-4.67,2.76.53.53,0,0,1-.49,0,25.69,25.69,0,0,1-6-3.79A9.86,9.86,0,0,1,.5,15.63,13.63,13.63,0,0,1,0,14.09S0,14,0,14Z"/><path d="M22.05,15.64h1.32v1.47H21.21v5.83H16.8V17.11H14.62V15.65H16c-.05-.46-.1-.88-.15-1.3l-.45-3.54L14.89,7c-.1-.77-.19-1.54-.29-2.31a.44.44,0,0,1,.14-.4q2.05-2,4.09-4.09L19,0l.16.15,4.13,4.12a.38.38,0,0,1,.12.36c-.17,1.3-.33,2.6-.49,3.9s-.29,2.29-.43,3.44-.29,2.3-.44,3.44ZM18.27,2.83l-.11.08c-.64.65-1.29,1.28-1.92,1.93a.36.36,0,0,0-.09.26c.07.61.15,1.22.22,1.84.18,1.4.35,2.81.52,4.21l.54,4.28c0,.15.06.21.22.21h2.88c0-.1,0-.18,0-.26.19-1.48.37-3,.56-4.42l.72-5.82a.41.41,0,0,0-.1-.3c-.62-.64-1.26-1.27-1.89-1.9l-.15-.1v7H18.27Zm0,14.3v4.34h1.42V17.13Z"/><path d="M4.39,6.09V7c0,2,0,4.09,0,6.13a2.1,2.1,0,0,0,.43,1.31,10.61,10.61,0,0,0,2.34,2.2c.69.49,1.42.92,2.12,1.39a.38.38,0,0,0,.48,0l2.45-1.58.88,1.15c-.65.44-1.27.88-1.91,1.28-.49.32-1,.59-1.53.87a.34.34,0,0,1-.26,0,21.36,21.36,0,0,1-4.63-3.2,6.13,6.13,0,0,1-1.6-2.11,2.79,2.79,0,0,1-.22-1c0-2.8,0-5.6,0-8.4V4.93l1.25-.32L9.29,3.34a.9.9,0,0,1,.4,0l4.24,1.06.13.05-.35,1.41-1.58-.39L9.7,4.85a.65.65,0,0,0-.31,0L4.47,6.06Z"/><path d="M19.72,11.27v1.44H18.28V11.27Z"/></g></g></svg>