<svg xmlns="http://www.w3.org/2000/svg" viewBox="0 0 22.86 23.79"><defs><style>.cls-1{fill:none;stroke:#fff;stroke-miterlimit:10;stroke-width:0.8px;}</style></defs><title>units-white</title><g id="Layer_2" data-name="Layer 2"><g id="Layer_1-2" data-name="Layer 1"><path class="cls-1" d="M15.9,23.39h-9c0-.35,0-.69,0-1a.72.72,0,0,0-.19-.54L2.85,17.2a1,1,0,0,1-.18-.33c-.75-2.49-1.49-5-2.25-7.45a.26.26,0,0,1,.13-.35L1.89,8.2,2,8.51c1.13,2.37,2.2,4.76,3.13,7.21a.71.71,0,0,0,.27.32c.79.49,1.58,1,2.38,1.43a1,1,0,0,1,.42.46,3.92,3.92,0,0,0,1.69,1.88,2.93,2.93,0,0,0,3.35-.3A3.9,3.9,0,0,0,14.49,18a1.21,1.21,0,0,1,.5-.55c.77-.44,1.52-.9,2.28-1.35a.82.82,0,0,0,.39-.45c.95-2.42,1.93-4.83,3.08-7.18l.14-.29,1.52,1-.72,2.38q-.78,2.6-1.57,5.21a1.3,1.3,0,0,1-.22.42c-1.28,1.55-2.56,3.09-3.82,4.63a.83.83,0,0,0-.17.46C15.88,22.66,15.9,23,15.9,23.39Z"/><path class="cls-1" d="M14.21,15.17a4.79,4.79,0,0,1-1.07,3.2,2.15,2.15,0,0,1-3.22.31A3.65,3.65,0,0,1,9,17.33a5.31,5.31,0,0,1,.39-5,2.6,2.6,0,0,1,1.28-1.08,2.17,2.17,0,0,1,2.52.77A4.78,4.78,0,0,1,14.21,15.17Z"/><path class="cls-1" d="M3.77,3l1.57-.57L4.77.83,18.3,7.13l-1,2.14Z"/><path class="cls-1" d="M19,3,15.41,4.63a.33.33,0,0,1-.24,0L12.48,3.39,18,.83l-.57,1.56Z"/><path class="cls-1" d="M5.46,9.27l-1-2.12L4.63,7,7.31,5.8a.35.35,0,0,1,.26,0L10.27,7Z"/><path class="cls-1" d="M20.92,5.9,18,12.07c-.21-.24-.42-.46-.6-.7,0,0,0-.19,0-.27l2.26-4.84c.19-.41.2-.41.66-.39Z"/><path class="cls-1" d="M1.85,5.9c.32,0,.59,0,.86,0,.08,0,.18.1.22.19.74,1.56,1.45,3.13,2.21,4.68.21.42.24.73-.15,1a2.14,2.14,0,0,0-.27.31Z"/><path class="cls-1" d="M1.18.44H3.63l.52,1.4c-.46.17-.9.34-1.34.49a.18.18,0,0,1-.17-.05Z"/><path class="cls-1" d="M18.61,1.84,19.1.5a.23.23,0,0,1,.15-.1l2.31.06L20.05,2.37Z"/></g></g></svg>