<svg xmlns="http://www.w3.org/2000/svg" viewBox="0 0 198.82 33.13"><defs><style>.cls-1{fill:#fff;}</style></defs><title>Asset 8</title><g id="Layer_2" data-name="Layer 2"><g id="Layer_1-2" data-name="Layer 1"><path class="cls-1" d="M111.9,4.37,111.83,16a1.83,1.83,0,0,1-.58,1.71l-5.11,5.06c-.29.28-.58.28-.76.09a1,1,0,0,1-.28-.67l-1.09-10a1.92,1.92,0,0,1,.59-2L110.86,4c.33-.33.66-.38.85-.19A.8.8,0,0,1,111.9,4.37Z"/><path class="cls-1" d="M135.38,5.74h-5.51l-1.73,19.78a.76.76,0,0,1-.74.68H123a.62.62,0,0,1-.62-.68l1.73-19.78h-5.54a.59.59,0,0,1-.62-.64l.31-3.5a.72.72,0,0,1,.73-.65h16.85a.62.62,0,0,1,.66.65l-.3,3.5A.77.77,0,0,1,135.38,5.74Z"/><path class="cls-1" d="M142.5,26.5c-5.5,0-8.22-3.43-7.75-8.83l.21-2.38c.47-5.4,3.79-8.83,9.3-8.83s8.19,3.43,7.72,8.83l-.21,2.38C151.3,23.07,148,26.5,142.5,26.5Zm4-11.21c.24-2.75-.69-4.15-2.66-4.15s-3.18,1.4-3.42,4.15l-.21,2.38c-.24,2.75.72,4.18,2.69,4.18s3.15-1.43,3.39-4.18Z"/><path class="cls-1" d="M162.53,26.5c-5.51,0-8.23-3.43-7.76-8.83l.21-2.38c.47-5.4,3.8-8.83,9.3-8.83s8.19,3.43,7.72,8.83l-.21,2.38C171.32,23.07,168,26.5,162.53,26.5Zm4-11.21c.24-2.75-.69-4.15-2.66-4.15s-3.18,1.4-3.42,4.15l-.21,2.38c-.24,2.75.72,4.18,2.69,4.18s3.15-1.43,3.39-4.18Z"/><path class="cls-1" d="M179.45,26.2h-4.14a.67.67,0,0,1-.66-.72L176.81.82a.79.79,0,0,1,.78-.68h4.14a.59.59,0,0,1,.59.68l-2.16,24.66A.76.76,0,0,1,179.45,26.2Z"/><path class="cls-1" d="M190.5,26.5a25.5,25.5,0,0,1-6.11-.75.69.69,0,0,1-.58-.78l.24-2.75a.69.69,0,0,1,.7-.65h.14c1.81.24,4.64.48,5.73.48,1.63,0,2-.44,2.12-1.33,0-.5-.23-.88-1.13-1.42l-4.19-2.55a5.09,5.09,0,0,1-2.59-5c.3-3.43,2.74-5.26,7.43-5.26a21.36,21.36,0,0,1,6,.78.68.68,0,0,1,.57.78l-.24,2.75a.63.63,0,0,1-.63.65h-.1a52.23,52.23,0,0,0-5.6-.45c-1.33,0-1.82.21-1.89,1,0,.51.3.78,1,1.19l4,2.41c2.68,1.63,3.13,3.4,3,5.23C198,24,195.46,26.5,190.5,26.5Z"/><path class="cls-1" d="M80.57.71l0,5.86a.93.93,0,0,1-.29.86L77.66,10c-.15.14-.29.14-.39,0a.6.6,0,0,1-.14-.33l-.54-5c0-.48,0-.68.29-1L80.05.51c.16-.17.33-.19.43-.09A.4.4,0,0,1,80.57.71Z"/><path class="cls-1" d="M18.63,26.2H15.3a1.59,1.59,0,0,1-1.67-1.06L7.05,11.76c-.12-.21-.18-.28-.28-.28s-.18.07-.2.28L5.37,25.52a.76.76,0,0,1-.74.68h-4A.62.62,0,0,1,0,25.52L2,2.24A1.44,1.44,0,0,1,3.44,1H6.88c.67,0,1,.34,1.33,1.06L15,16c.12.21.14.28.25.28s.17-.07.19-.31L16.74,1.6A.72.72,0,0,1,17.48,1h4a.59.59,0,0,1,.63.65l-2,23.31A1.47,1.47,0,0,1,18.63,26.2Z"/><path class="cls-1" d="M38.72,26.2h-3.8a.61.61,0,0,1-.62-.68l.05-.55a8.09,8.09,0,0,1-4.86,1.53c-3,0-5.69-1.43-5.3-5.84l0-.31c.34-4,3.05-5.74,8.86-5.74h1.83L35,13.39c.17-1.94-.75-2.35-2.34-2.35-2.18,0-4.6.14-5.66.24h-.17a.5.5,0,0,1-.56-.61l.24-2.75a.84.84,0,0,1,.71-.75,28,28,0,0,1,5.94-.71c4.89,0,7.78,2,7.34,6.93L39.46,25.52A.76.76,0,0,1,38.72,26.2Zm-4-8.33H32.79c-2.37,0-3.06.82-3.2,2.48l0,.31c-.13,1.42.56,1.7,2,1.7a6.66,6.66,0,0,0,2.85-.75Z"/><path class="cls-1" d="M61.84,10.3l-1.09.33a4.87,4.87,0,0,1,.53,2.52l0,.27c-.39,4.42-3.65,6.35-8.95,6.35a9.76,9.76,0,0,1-3.49-.51.94.94,0,0,0-.54.79c-.05.54.13.78.93.95l3.77.85c5.8,1.29,7.75,2.21,7.47,5.47l0,.27C60.1,31.33,57,33.13,51,33.13c-5.64,0-8.46-2-8.15-5.54l0-.27a5.12,5.12,0,0,1,2.37-3.81,3.27,3.27,0,0,1-1.46-3.16,4,4,0,0,1,1.75-2.89,5.2,5.2,0,0,1-1.21-4l0-.27c.33-3.84,3.1-6.42,9.05-6.42h8.46a.78.78,0,0,1,.77.88l-.17,1.94C62.47,10,62.26,10.16,61.84,10.3Zm-7,17c.06-.65-.34-1.09-3.34-1.77L49,25a3.7,3.7,0,0,0-.88,2.31l0,.27c-.11,1.15.63,1.73,3.24,1.73,2.79,0,3.36-.71,3.45-1.73Zm1.07-14.17c.12-1.39-.4-2.45-2.81-2.45s-3.18,1.06-3.3,2.45l0,.27c-.1,1.16.31,2.38,2.89,2.38,2.38,0,3.1-.92,3.23-2.38Z"/><path class="cls-1" d="M70.85,4.52H66.43a.62.62,0,0,1-.62-.68L66.09.68A.76.76,0,0,1,66.83,0h4.41a.61.61,0,0,1,.62.68l-.27,3.16A.77.77,0,0,1,70.85,4.52Zm-2,21.68H64.67a.62.62,0,0,1-.62-.68L65.63,7.41a.76.76,0,0,1,.74-.68h4.15a.62.62,0,0,1,.62.68L69.55,25.52A.76.76,0,0,1,68.81,26.2Z"/><path class="cls-1" d="M89.66,26.5a25.52,25.52,0,0,1-6.12-.75A.69.69,0,0,1,83,25l.24-2.75a.7.7,0,0,1,.71-.64H84c1.82.23,4.65.47,5.74.47,1.63,0,2-.44,2.12-1.33,0-.5-.23-.88-1.13-1.42l-4.2-2.55a5.06,5.06,0,0,1-2.58-5c.3-3.43,2.73-5.26,7.42-5.26a21.25,21.25,0,0,1,6,.78A.69.69,0,0,1,98,8l-.24,2.75a.65.65,0,0,1-.64.65H97a52,52,0,0,0-5.6-.45c-1.32,0-1.82.21-1.89,1,0,.51.31.78,1,1.19l4,2.41c2.67,1.63,3.13,3.4,3,5.23C97.15,24,94.62,26.5,89.66,26.5Z"/></g></g></svg>